<svg xmlns="http://www.w3.org/2000/svg" width="443.582" height="589.798" viewBox="0 0 443.582 589.798">
  <g id="Group_30" data-name="Group 30" transform="translate(10599.2 3153.177)" opacity="0.43">
    <path id="Path_217" data-name="Path 217" d="M497.7,587.63s11-7.89,22.43-3c0,0-3.2,6.78-17.4,6.69Z" transform="translate(-10935.391 -3325.257)" fill="#f15a29"/>
    <path id="Path_218" data-name="Path 218" d="M496.33,588.09s-2.94,13.23,6,21.81c0,0,5-5.6-.67-18.63Z" transform="translate(-10935.391 -3325.257)" fill="#f15a29"/>
    <path id="Path_219" data-name="Path 219" d="M481.75,576.05s.41-11.17,25.7-8.44c0,0,.4,7.19-8.3,10.93S486.3,579.57,481.75,576.05Z" transform="translate(-10935.391 -3325.257)" fill="#f15a29"/>
    <path id="Path_220" data-name="Path 220" d="M480.2,576s-10.5,3.82-.12,27.05c0,0,7-1.84,7.84-11.27S484.94,579.28,480.2,576Z" transform="translate(-10935.391 -3325.257)" fill="#f15a29"/>
    <path id="Path_221" data-name="Path 221" d="M465.36,560.78S463.22,542.51,489,543.4c0,0,2.46,16.52-18.93,21.61Z" transform="translate(-10935.391 -3325.257)" fill="#f15a29"/>
    <path id="Path_222" data-name="Path 222" d="M447.58,540.74s2.73-20.91,28.66-15.7c0,0,.78,18-24.28,20.49Z" transform="translate(-10935.391 -3325.257)" fill="#f15a29"/>
    <path id="Path_223" data-name="Path 223" d="M434.35,519.82s5.12-20.5,30.81-15.37c0,0-5.36,18.42-29,19Z" transform="translate(-10935.391 -3325.257)" fill="#f15a29"/>
    <path id="Path_224" data-name="Path 224" d="M421.76,499.38s5-21.22,29.77-15.85c0,0-7.44,20.26-28,19.37Z" transform="translate(-10935.391 -3325.257)" fill="#f15a29"/>
    <path id="Path_225" data-name="Path 225" d="M413.39,479.83S416.84,454,440,458.78c0,0-5.76,23.62-24.76,24.72Z" transform="translate(-10935.391 -3325.257)" fill="#f15a29"/>
    <path id="Path_226" data-name="Path 226" d="M405.35,456.12s4.33-26.09,27.78-19.45c0,0-8.15,24.81-26,23Z" transform="translate(-10935.391 -3325.257)" fill="#f15a29"/>
    <path id="Path_227" data-name="Path 227" d="M400.08,434s7.46-26.21,25.42-26.2c0,0-7.6,27.67-23.72,31.33Z" transform="translate(-10935.391 -3325.257)" fill="#f15a29"/>
    <path id="Path_228" data-name="Path 228" d="M396.45,412.31s8-31.51,22.68-29.67c0,0-5.45,24.06-22,34.5Z" transform="translate(-10935.391 -3325.257)" fill="#f15a29"/>
    <path id="Path_229" data-name="Path 229" d="M393.86,386.36s7.62-26.3,22-27.88c0,0-4.89,25.77-21.41,34.61Z" transform="translate(-10935.391 -3325.257)" fill="#f15a29"/>
    <path id="Path_230" data-name="Path 230" d="M391.19,362.21s9.75-26.4,19.25-27.35c0,0-3.69,25.77-18.14,31.58Z" transform="translate(-10935.391 -3325.257)" fill="#f15a29"/>
    <path id="Path_231" data-name="Path 231" d="M389.13,339.71s5.53-28.49,14.94-31.19c0,0-.41,23.14-13.9,33.26Z" transform="translate(-10935.391 -3325.257)" fill="#f15a29"/>
    <path id="Path_232" data-name="Path 232" d="M384.42,310.34s6.09-22.77,13.66-26.49c0,0-.51,26.58-11.66,31.92Z" transform="translate(-10935.391 -3325.257)" fill="#f15a29"/>
    <path id="Path_233" data-name="Path 233" d="M380.71,291.07l-2.92-39.63S393.3,280.84,382,298Z" transform="translate(-10935.391 -3325.257)" fill="#f15a29"/>
    <path id="Path_234" data-name="Path 234" d="M368.08,252.06s-11.46-28.57-14-30.09c0,0,21,18,20,42.27Z" transform="translate(-10935.391 -3325.257)" fill="#f15a29"/>
    <path id="Path_235" data-name="Path 235" d="M464.65,560.67s-18.32-1.68-16.79,24.06c0,0,16.58,2,21.14-19.46Z" transform="translate(-10935.391 -3325.257)" fill="#f15a29"/>
    <path id="Path_236" data-name="Path 236" d="M446.69,540.08s-21.07.74-18.34,27c0,0,17.8,2.48,22.69-22.22Z" transform="translate(-10935.391 -3325.257)" fill="#f15a29"/>
    <path id="Path_237" data-name="Path 237" d="M434.21,521.54s-19.47-8.24-30.82,15.37c0,0,17.95,6.8,32.65-11.7Z" transform="translate(-10935.391 -3325.257)" fill="#f15a29"/>
    <path id="Path_238" data-name="Path 238" d="M421.34,499.59s-19.95-8.79-30.58,14.26c0,0,20.67,6.24,32.33-10.74Z" transform="translate(-10935.391 -3325.257)" fill="#f15a29"/>
    <path id="Path_239" data-name="Path 239" d="M413.66,480.38s-19.53-17.28-33.87,1.5c0,0,19.82,14.07,34.89,2.47Z" transform="translate(-10935.391 -3325.257)" fill="#f15a29"/>
    <path id="Path_240" data-name="Path 240" d="M406.4,455.47s-19.67-17.69-33.85,2.14c0,0,21.86,14.29,34.67,1.69Z" transform="translate(-10935.391 -3325.257)" fill="#f15a29"/>
    <path id="Path_241" data-name="Path 241" d="M402,433.17s-15.49-22.42-32.48-16.64c0,0,16.08,23.76,32.52,22Z" transform="translate(-10935.391 -3325.257)" fill="#f15a29"/>
    <path id="Path_242" data-name="Path 242" d="M396.87,412.15s-15.83-28.4-29.55-22.84c0,0,11.46,21.85,30.12,27.69Z" transform="translate(-10935.391 -3325.257)" fill="#f15a29"/>
    <path id="Path_243" data-name="Path 243" d="M394.81,384.84s-16-22.21-30.06-18.88c0,0,13.24,22.63,31.78,25.42Z" transform="translate(-10935.391 -3325.257)" fill="#f15a29"/>
    <path id="Path_244" data-name="Path 244" d="M392.77,361.64s-12.7-25.12-22.25-25c0,0,6.61,25.18,21.62,29.31Z" transform="translate(-10935.391 -3325.257)" fill="#f15a29"/>
    <path id="Path_245" data-name="Path 245" d="M389.58,339.13s-14-25.4-23.82-25.07c0,0,7.52,21.89,23.47,27.37Z" transform="translate(-10935.391 -3325.257)" fill="#f15a29"/>
    <path id="Path_246" data-name="Path 246" d="M386.57,311.84S376,290.78,367.84,288.67c0,0,5.87,25.93,17.88,28.9Z" transform="translate(-10935.391 -3325.257)" fill="#f15a29"/>
    <path id="Path_247" data-name="Path 247" d="M379.52,290.36,356.46,258s6.84,32.52,26.48,38.55Z" transform="translate(-10935.391 -3325.257)" fill="#f15a29"/>
    <path id="Path_248" data-name="Path 248" d="M363.19,254.92s-26-16.51-27-19.29c0,0,13.86,24,37.9,27.39Z" transform="translate(-10935.391 -3325.257)" fill="#f15a29"/>
    <path id="Path_250" data-name="Path 250" d="M386.45,316l-1.06.18c-7.1-42.55-16-67.52-25.15-70.3l.31-1C370.22,247.8,379.17,272.41,386.45,316Z" transform="translate(-10935.391 -3325.257)" fill="#444053"/>
    <path id="Path_251" data-name="Path 251" d="M398.39,417.94l-1.59.2c-.49-4-.9-8.06-1.24-12.12-2.88-35.34-6.49-67.75-10.53-92l.88-1.18c4,24.29,8.37,57.66,11.26,93C397.49,409.93,397.91,414,398.39,417.94Z" transform="translate(-10935.391 -3325.257)" fill="#444053"/>
    <path id="Path_252" data-name="Path 252" d="M528.34,606.85c-.29-.12-28.94-11.61-59.33-40.5a232.378,232.378,0,0,1-44.45-58.12c-14.57-27-24.11-60.52-28.13-93.28l1.7.72c9,73.52,44.54,122.66,72.29,149.06,30.09,28.63,58.42,40,58.7,40.13Z" transform="translate(-10935.391 -3325.257)" fill="#444053"/>
    <path id="Path_253" data-name="Path 253" d="M548.25,574.23s12.86-4.25,22.3,3.79c0,0-5.07,5.53-18.6,1.21Z" transform="translate(-10935.391 -3325.257)" fill="#f15a29"/>
    <path id="Path_254" data-name="Path 254" d="M546.8,574.25s-6.74,11.76-.74,22.62c0,0,6.43-3.87,4.9-18Z" transform="translate(-10935.391 -3325.257)" fill="#f15a29"/>
    <path id="Path_255" data-name="Path 255" d="M536.46,558.43s3.72-10.55,27-.41c0,0-1.76,7-11.18,8S539.76,563.14,536.46,558.43Z" transform="translate(-10935.391 -3325.257)" fill="#f15a29"/>
    <path id="Path_256" data-name="Path 256" d="M535,558s-11.17.53-8.16,25.79c0,0,7.18.32,10.83-8.42S538.55,562.46,535,558Z" transform="translate(-10935.391 -3325.257)" fill="#f15a29"/>
    <path id="Path_257" data-name="Path 257" d="M525.35,539s3.4-18.08,27.74-9.56c0,0-2.57,16.5-24.5,15Z" transform="translate(-10935.391 -3325.257)" fill="#f15a29"/>
    <path id="Path_258" data-name="Path 258" d="M514.34,514.55s8.83-19.15,32-6.46c0,0-4.59,17.37-29.27,12.33Z" transform="translate(-10935.391 -3325.257)" fill="#f15a29"/>
    <path id="Path_259" data-name="Path 259" d="M507.93,490.64s11-18.05,34-5.51c0,0-10.6,16-33.34,9.56Z" transform="translate(-10935.391 -3325.257)" fill="#f15a29"/>
    <path id="Path_260" data-name="Path 260" d="M502,467.38s11.06-18.78,33.15-6.28c0,0-13.13,17.13-32.52,10.16Z" transform="translate(-10935.391 -3325.257)" fill="#f15a29"/>
    <path id="Path_261" data-name="Path 261" d="M499.83,446.22s11-23.65,31.64-12.18c0,0-12.53,20.83-31,16.23Z" transform="translate(-10935.391 -3325.257)" fill="#f15a29"/>
    <path id="Path_262" data-name="Path 262" d="M499.2,421.2s11.9-23.62,32.31-10.3c0,0-15.17,21.26-31.68,14.17Z" transform="translate(-10935.391 -3325.257)" fill="#f15a29"/>
    <path id="Path_263" data-name="Path 263" d="M500.76,398.49s14.92-22.8,32.06-17.45c0,0-15.49,24.16-32,22.86Z" transform="translate(-10935.391 -3325.257)" fill="#f15a29"/>
    <path id="Path_264" data-name="Path 264" d="M503.74,376.72s17-27.71,30.48-21.57c0,0-12.37,21.34-31.25,26.39Z" transform="translate(-10935.391 -3325.257)" fill="#f15a29"/>
    <path id="Path_265" data-name="Path 265" d="M509,351.17s15.1-22.83,29.28-20.07c0,0-12.33,23.15-30.74,26.68Z" transform="translate(-10935.391 -3325.257)" fill="#f15a29"/>
    <path id="Path_266" data-name="Path 266" d="M513.62,327.33s17.17-22.31,26.52-20.39c0,0-11.19,23.5-26.71,24.76Z" transform="translate(-10935.391 -3325.257)" fill="#f15a29"/>
    <path id="Path_267" data-name="Path 267" d="M518.35,305.23s13.75-25.55,23.55-25.33c0,0-7.28,22-23.18,27.62Z" transform="translate(-10935.391 -3325.257)" fill="#f15a29"/>
    <path id="Path_268" data-name="Path 268" d="M522.6,275.79s12.58-19.92,20.92-21.23c0,0-8.4,25.23-20.63,27Z" transform="translate(-10935.391 -3325.257)" fill="#f15a29"/>
    <path id="Path_269" data-name="Path 269" d="M524.78,256.28l9-38.69s6.07,32.67-9.8,45.73Z" transform="translate(-10935.391 -3325.257)" fill="#f15a29"/>
    <path id="Path_270" data-name="Path 270" d="M524.33,215.29s-2.44-30.69-4.43-32.9c0,0,14.73,23.46,6.5,46.3Z" transform="translate(-10935.391 -3325.257)" fill="#f15a29"/>
    <path id="Path_271" data-name="Path 271" d="M524.71,538.66s-17-7.07-23.18,18c0,0,15.21,6.89,26-12.29Z" transform="translate(-10935.391 -3325.257)" fill="#f15a29"/>
    <path id="Path_272" data-name="Path 272" d="M513.69,513.65s-20.33-5.56-25.55,20.36c0,0,16.25,7.67,28.28-14.46Z" transform="translate(-10935.391 -3325.257)" fill="#f15a29"/>
    <path id="Path_273" data-name="Path 273" d="M507.29,492.24s-16.13-13.66-34,5.51c0,0,15.11,11.83,34.65-1.46Z" transform="translate(-10935.391 -3325.257)" fill="#f15a29"/>
    <path id="Path_274" data-name="Path 274" d="M501.53,467.46S485.11,453.13,468.1,472c0,0,17.87,12.1,34.06-.65Z" transform="translate(-10935.391 -3325.257)" fill="#f15a29"/>
    <path id="Path_275" data-name="Path 275" d="M499.92,446.83s-13.51-22.31-32.78-8.65c0,0,14.73,19.34,32.57,12.74Z" transform="translate(-10935.391 -3325.257)" fill="#f15a29"/>
    <path id="Path_276" data-name="Path 276" d="M500.4,420.88s-13.52-22.73-33-8c0,0,16.62,20.15,32.6,11.93Z" transform="translate(-10935.391 -3325.257)" fill="#f15a29"/>
    <path id="Path_277" data-name="Path 277" d="M502.82,398.28s-8.11-26-26.06-25.55c0,0,8.29,27.48,24.5,30.73Z" transform="translate(-10935.391 -3325.257)" fill="#f15a29"/>
    <path id="Path_278" data-name="Path 278" d="M504.19,376.69s-6.67-31.82-21.42-30.59c0,0,4.44,24.27,20.52,35.39Z" transform="translate(-10935.391 -3325.257)" fill="#f15a29"/>
    <path id="Path_279" data-name="Path 279" d="M510.35,350s-8.67-26-23.09-27c0,0,5.92,25.56,22.78,33.73Z" transform="translate(-10935.391 -3325.257)" fill="#f15a29"/>
    <path id="Path_280" data-name="Path 280" d="M515.3,327.25s-4.65-27.76-13.81-30.47c0,0-1.18,26,11.93,34.42Z" transform="translate(-10935.391 -3325.257)" fill="#f15a29"/>
    <path id="Path_281" data-name="Path 281" d="M519,304.81s-5.83-28.42-15.28-31c0,0,.66,23.13,14.27,33.11Z" transform="translate(-10935.391 -3325.257)" fill="#f15a29"/>
    <path id="Path_282" data-name="Path 282" d="M524.2,277.87s-3.83-23.25-11-27.71c0,0-2.11,26.51,8.47,32.92Z" transform="translate(-10935.391 -3325.257)" fill="#f15a29"/>
    <path id="Path_283" data-name="Path 283" d="M523.86,255.26l-12.39-37.75s-3.15,33.09,13.81,44.69Z" transform="translate(-10935.391 -3325.257)" fill="#f15a29"/>
    <path id="Path_284" data-name="Path 284" d="M518.81,216.57s-19.91-23.5-20-26.46c0,0,6.09,27,28,37.42Z" transform="translate(-10935.391 -3325.257)" fill="#f15a29"/>
    <path id="Path_285" data-name="Path 285" d="M519.39,208.58s-20.79-34.59-28-36.5c0,0,22.88,7.32,29,35.24Z" transform="translate(-10935.391 -3325.257)" fill="#f15a29"/>
    <path id="Path_286" data-name="Path 286" d="M522.84,281.8l-1.06-.15c5.88-42.73,4.78-69.23-3.1-74.6l.61-.88C527.64,211.86,528.87,238,522.84,281.8Z" transform="translate(-10935.391 -3325.257)" fill="#444053"/>
    <path id="Path_287" data-name="Path 287" d="M503.92,382.68l-1.58-.29c.72-3.95,1.53-8,2.43-11.94,7.76-34.59,14-66.61,17.31-91l1.19-.86c-3.36,24.39-9.16,57.54-16.94,92.17C505.45,374.76,504.63,378.75,503.92,382.68Z" transform="translate(-10935.391 -3325.257)" fill="#444053"/>
    <path id="Path_288" data-name="Path 288" d="M571.78,601.69c-.24-.19-24.18-19.7-44.59-56.31A232.076,232.076,0,0,1,502,476.66c-5.88-30.12-5-65,.89-97.42l1.41,1.19c-13.25,72.88,6,130.36,24.67,163.82,20.21,36.28,43.87,55.58,44.11,55.77Z" transform="translate(-10935.391 -3325.257)" fill="#444053"/>
    <path id="Path_316" data-name="Path 316" d="M779.22,674.25s-30.58-1.84-27,19.59a5.23,5.23,0,0,0,2.72,5.5s0-1.59,3.13-1.05a13.8,13.8,0,0,0,3.33.16,6.87,6.87,0,0,0,4.06-1.67h0s8.59-3.55,11.94-17.61c0,0,2.47-3.06,2.37-3.85l-5.16,2.21s1.77,3.72.38,6.81c0,0-.17-6.68-1.16-6.52-.2,0-2.68,1.29-2.68,1.29s3,6.48.74,11.2c0,0,.87-8-1.69-10.73l-3.63,2.12s3.54,6.7,1.14,12.16c0,0,.62-8.38-1.91-11.64l-3.29,2.56s3.33,6.6,1.3,11.14c0,0-.26-9.76-2-10.5,0,0-2.88,2.54-3.32,3.59,0,0,2.28,4.79.87,7.32,0,0-.87-6.51-1.58-6.53,0,0-2.87,4.3-3.17,7.25a15.62,15.62,0,0,1,2.47-7.67,8.659,8.659,0,0,0-4.39,2.28s.44-3,5.1-3.32c0,0,2.37-3.26,3-3.46,0,0-4.63-.39-7.44.86,0,0,2.47-2.88,8.28-1.57l3.25-2.65s-6.09-.84-8.68.08c0,0,3-2.54,9.56-.69l3.54-2.11s-5.2-1.12-8.3-.72c0,0,3.27-1.76,9.34.15l2.53-1.14s-3.81-.75-4.93-.86-1.17-.43-1.17-.43a13.231,13.231,0,0,1,7.15.8S779.31,674.59,779.22,674.25Z" transform="translate(-10935.391 -3325.257)" fill="#f15a29"/>
    <path id="Path_317" data-name="Path 317" d="M724.35,524.59s-15.53,26.41,5.21,32.93a5.24,5.24,0,0,0,6.14.08s-1.39-.77.48-3.27a14.313,14.313,0,0,0,1.66-2.89,7,7,0,0,0,.35-4.38h0s.73-9.27-10.27-18.63c0,0-1.61-3.6-2.35-3.87l-.38,5.6s4.11.12,6.24,2.76c0,0-6-2.88-6.34-1.93-.06.2-.07,3-.07,3s7.16.24,10.32,4.42c0,0-6.72-4.4-10.33-3.36l.24,4.2s7.58-.12,11.36,4.5c0,0-7.19-4.36-11.24-3.59l.79,4.1s7.4,0,10.51,3.89c0,0-8.81-4.19-10.26-3,0,0,1,3.72,1.68,4.59,0,0,5.31.14,6.92,2.55,0,0-6.19-2.18-6.54-1.56,0,0,2.54,4.51,5,6.12a15.649,15.649,0,0,1-5.71-5.69,8.621,8.621,0,0,0,0,5s-2.51-1.78-.63-6c0,0-1.84-3.59-1.73-4.25,0,0-2.44,3.95-2.61,7,0,0-1.44-3.51,2.36-8.1l-.88-4.1s-3.51,5.06-3.87,7.78c0,0-.91-3.81,3.73-8.83l-.28-4.11s-3.36,4.12-4.4,7.06c0,0-.09-3.71,4.36-8.25l.14-2.77s-2.4,3.06-3,4-.91.85-.91.85a13.15,13.15,0,0,1,3.95-6S724.69,524.66,724.35,524.59Z" transform="translate(-10935.391 -3325.257)" fill="#f15a29"/>
    <path id="Path_318" data-name="Path 318" d="M627.22,313.88s-15.52,26.42,5.21,32.93a5.22,5.22,0,0,0,6.14.08s-1.39-.77.49-3.27a14.239,14.239,0,0,0,1.65-2.89,6.93,6.93,0,0,0,.35-4.38h0s.74-9.27-10.27-18.63c0,0-1.61-3.59-2.35-3.86l-.38,5.59s4.12.12,6.24,2.76c0,0-6-2.88-6.33-1.93-.07.2-.07,3-.07,3s7.15.24,10.31,4.42c0,0-6.72-4.4-10.33-3.36l.25,4.2s7.57-.12,11.35,4.5c0,0-7.19-4.35-11.24-3.59l.79,4.1s7.4,0,10.52,3.9c0,0-8.82-4.2-10.27-3,0,0,1,3.71,1.69,4.58,0,0,5.3.14,6.91,2.55,0,0-6.19-2.18-6.53-1.56,0,0,2.53,4.52,5,6.12a15.66,15.66,0,0,1-5.72-5.68,8.68,8.68,0,0,0,0,4.94s-2.51-1.78-.63-6.05c0,0-1.84-3.59-1.73-4.25,0,0-2.44,3.95-2.61,7,0,0-1.44-3.51,2.37-8.1l-.89-4.1s-3.51,5.06-3.86,7.78c0,0-.92-3.81,3.72-8.83l-.28-4.11s-3.36,4.12-4.4,7.06c0,0-.09-3.71,4.36-8.24l.14-2.78s-2.4,3.06-3,4-.91.85-.91.85a13.22,13.22,0,0,1,4-6S627.56,314,627.22,313.88Z" transform="translate(-10935.391 -3325.257)" fill="#f15a29"/>
    <path id="Path_322" data-name="Path 322" d="M708.62,204.88s-6.25-30-26-20.89a5.22,5.22,0,0,0-4.6,4.07s1.55-.37,1.84,2.75a14.338,14.338,0,0,0,.71,3.25,7,7,0,0,0,2.69,3.48h0s5.68,7.36,20.11,6.9c0,0,3.61,1.58,4.35,1.28l-3.49-4.4s-3.13,2.68-6.47,2.15c0,0,6.4-1.91,6-2.83-.09-.19-1.95-2.25-1.95-2.25s-5.46,4.63-10.61,3.66c0,0,7.93-1.26,9.91-4.45l-3-2.95s-5.54,5.18-11.44,4.29c0,0,8.25-1.6,10.74-4.89l-3.34-2.5s-5.5,4.94-10.41,4.17c0,0,9.35-2.82,9.6-4.7,0,0-3.2-2.11-4.33-2.26,0,0-4,3.46-6.83,2.76,0,0,6-2.54,5.89-3.24,0,0-4.91-1.64-7.84-1.15a15.71,15.71,0,0,1,8.05.37,8.58,8.58,0,0,0-3.35-3.64s3.06-.37,4.54,4c0,0,3.77,1.43,4.13,2,0,0-.84-4.57-2.78-7,0,0,3.42,1.63,3.69,7.59l3.41,2.44s-.79-6.1-2.36-8.36c0,0,3.23,2.21,3.17,9l3,2.86s-.28-5.31-1.48-8.19c0,0,2.55,2.69,2.3,9l1.76,2.15s-.27-3.87-.45-5,.1-1.25.1-1.25a13.22,13.22,0,0,1,1.11,7.12S708.32,205.06,708.62,204.88Z" transform="translate(-10935.391 -3325.257)" fill="#f15a29"/>
    <path id="Path_323" data-name="Path 323" d="M601,761s-6.24-30-26-20.89a5.23,5.23,0,0,0-4.61,4.07s1.55-.37,1.84,2.75a13.81,13.81,0,0,0,.72,3.25,7,7,0,0,0,2.68,3.48h0s5.68,7.36,20.12,6.9c0,0,3.61,1.58,4.34,1.28l-3.48-4.4s-3.13,2.68-6.48,2.15c0,0,6.4-1.91,6-2.83-.08-.19-1.95-2.25-1.95-2.25s-5.46,4.63-10.61,3.66c0,0,7.94-1.26,9.91-4.45l-3-3s-5.48,5.2-11.4,4.28c0,0,8.25-1.6,10.74-4.89l-3.34-2.5s-5.49,4.94-10.4,4.17c0,0,9.35-2.81,9.6-4.7,0,0-3.21-2.11-4.33-2.26,0,0-4,3.46-6.84,2.76,0,0,6-2.54,5.89-3.24,0,0-4.91-1.64-7.84-1.15a15.741,15.741,0,0,1,8.06.37,8.65,8.65,0,0,0-3.35-3.64s3.05-.37,4.53,4c0,0,3.78,1.43,4.14,2,0,0-.84-4.57-2.78-7,0,0,3.42,1.63,3.68,7.59l3.42,2.44s-.8-6.1-2.37-8.36c0,0,3.24,2.21,3.18,9l3,2.86s-.28-5.31-1.49-8.19c0,0,2.56,2.69,2.31,9l1.76,2.15s-.28-3.87-.46-5,.1-1.24.1-1.24a13.17,13.17,0,0,1,1.11,7.11S600.72,761.15,601,761Z" transform="translate(-10935.391 -3325.257)" fill="#f15a29"/>
  </g>
</svg>
