<svg xmlns="http://www.w3.org/2000/svg" width="1406.857" height="788.588" viewBox="0 0 1406.857 788.588">
  <g id="Group_32" data-name="Group 32" transform="translate(-47.897 -2261.533)">
    <path id="Path_508" data-name="Path 508" d="M372.246,113.79s-198.43,113.528-67.082,203.458c0,0,14.865,21.3,44.836,15.921,0,0-7.759-7.947,14.041-17.678a113.987,113.987,0,0,0,21.354-12.542c8.734-6.477,14.555-15.016,16.582-24.327h0s35.086-51.736-15.758-133.53c0,0-.309-24.841-4.944-28.274l-20.6,31.409s29.833,11.055,37.008,31.68c0,0-35.051-31.869-40.373-27.03-1.064.946-10.025,17.029-10.025,17.029s51.8,19.408,61.623,51.52c0,0-35.292-42.384-65.228-45.465l-11.638,24.9s55.993,18.408,68.97,54.628c0,0-38.862-43.249-71.064-49.06l-7.278,25.706s54.174,18.786,64.713,48.979c0,0-51.5-46.438-65.88-43.005,0,0-4.875,23.895-2.3,30.734,0,0,38.519,14.191,42.639,32.166,0,0-38.484-28.166-43.016-25.463,0,0,4.188,32.436,17.371,48.033,0,0-21.594-21.868-23.791-47.249,0,0-14.728,13.515-15.552,28.679,0,0-12.771-16.624,14.659-36.572,0,0-1.957-25.409.961-28.923,0,0-30.623,16.678-41.643,33.977,0,0,.652-23.895,43.256-40.843l6.591-25.922s-41.917,20.354-53.212,35.139c0,0,5.458-24.327,55.547-41.681l11.123-24.462S296.375,191.1,279.21,205.45c0,0,11.226-21.624,58.362-36.68l9.853-15.678s-27.464,11.623-34.845,15.515-9.441,2.7-9.441,2.7C316,159.685,332.71,151.1,351.407,146.524,351.407,146.524,374.546,115.06,372.246,113.79Z" transform="translate(907.755 2147.743)" fill="#f15a29" opacity="0.24"/>
    <path id="Path_509" data-name="Path 509" d="M418.109,272.223S186.261,169.032,155.873,355.1c0,0-15.845,29.014,6.2,52.974,0,0,4.744-12.866,27.163.427a111.73,111.73,0,0,0,25.3,10.9,53.979,53.979,0,0,0,36.031-2.035h0s76.218-4.365,140.374-109.952c0,0,27.473-17.986,28.869-24.747l-45.985,3.282s3.535,35.611-15.5,56.978c0,0,16.9-55.271,8.775-56.814-1.643-.328-24.279,2.823-24.279,2.823s5.861,61.934-24.806,93.968c0,0,28.465-62.985,16.062-92.852l-33.892,6.925s9.3,65.151-24.248,103.027c0,0,27.566-66.956,16.93-100.959l-32.5,11.553s7.845,63.707-20.217,95.182c0,0,24.5-80.774,12.961-91.9,0,0-29.21,12.538-35.473,19.693,0,0,4.651,45.95-13.209,62.525,0,0,10.977-55.8,5.55-58.094,0,0-33.954,27.045-44.311,50.381,0,0,12.93-35.644,40.031-55.8,0,0-22.76-4.1-40.311,6.006,0,0,11.752-23.664,48.528-12.439,0,0,27.256-19.988,32.714-19.693,0,0-34.791-16.411-59.939-14.376,0,0,26.946-16.411,68.435,11l32.341-12.406S242.541,266.282,220,266.381c0,0,29.954-12.275,75.908,21.859l33.179-7.254s-37.21-24.124-62.326-29.7c0,0,30.109-5.055,71.877,28.062l22.7-2s-27.473-17.133-35.783-21.3-7.938-6.86-7.938-6.86a105.868,105.868,0,0,1,53.241,27.111S417.892,275.275,418.109,272.223Z" transform="translate(-102.466 2501.738)" fill="#f15a29" opacity="0.24"/>
    <path id="Path_510" data-name="Path 510" d="M318.145,296S245.564,48.85,141.224,162.2c0,0-22.095,9.439-21.9,43.162,0,0,8.6-5.889,14.018,20.451a159.415,159.415,0,0,0,8.214,26.664c4.587,11.367,11.565,20.219,19.877,25.211h0s42.054,53.327,125.942,23.759c0,0,22.971,7.221,26.913,3.348L288.631,273.05s-15.058,28.64-35.264,30.012c0,0,35.127-27.833,31.6-34.973-.712-1.452-14.073-15.893-14.073-15.893s-26.366,49.535-57.5,50.3c0,0,44.874-24.929,52.54-55.868l-21.082-20.169s-26.475,54.577-62.04,57.441c0,0,46.27-28.438,56.866-61.193l-22.533-15.45s-26.174,52.44-55.77,54.416c0,0,51.226-40.822,50.432-57.482,0,0-21.273-12.5-28.008-11.779,0,0-19.357,36.909-36.633,35.861,0,0,32.279-32.634,30.5-38.321,0,0-30.664-5.405-47.173,4.034,0,0,23.71-16.458,47.5-11.053,0,0-9.993-19.887-23.956-25.413,0,0,17.44-8.592,31.376,26.825,0,0,23.792,5.647,26.557,9.843,0,0-10.4-37.878-24.641-54.94,0,0,21.9,8.068,30.692,58.773l22.861,14.966s-11.964-51.149-23.847-67.728c0,0,21.547,13.231,29.432,72.205l20.78,19.322S259.2,191.607,248.713,168.9c0,0,18.179,18.636,24.367,73.779L285.948,258s-6.3-32.835-8.679-42.032-.876-10.891-.876-10.891c8.636,17.307,13.84,37.808,15.031,59.216C291.423,264.3,316.612,298.14,318.145,296Z" transform="translate(1136.609 2739.743)" fill="#f15a29" opacity="0.24"/>
  </g>
</svg>
